PathFileType	4	(X/Y/Z)	RBDS019\RBDS019runT35.trc
DataRate	CameraRate	NumFrames	NumMarkers	Units	OrigDataRate	OrigDataStartFrame	OrigNumFrames
150.000000	150.000000	4	33	mm	150.000000	3375	4500
Frame#	Time	L.ASIS			L.Heel.Bottom			L.Heel.Lateral			L.Heel.Top			L.Iliac.Crest			L.MT1			L.MT5			L.PSIS			L.Shank.Bottom.Lateral			L.Shank.Bottom.Medial			L.Shank.Top.Lateral			L.Shank.Top.Medial			L.Thigh.Bottom.Lateral			L.Thigh.Bottom.Medial			L.Thigh.Top.Lateral			L.Thigh.Top.Medial			R.ASIS			R.ASY			R.Heel.Bottom			R.Heel.Lateral			R.Heel.Top			R.Iliac.Crest			R.MT1			R.MT5			R.PSIS			R.Shank.Bottom.Lateral			R.Shank.Bottom.Medial			R.Shank.Top.Lateral			R.Shank.Top.Medial			R.Thigh.Bottom.Lateral			R.Thigh.Bottom.Medial			R.Thigh.Top.Lateral			R.Thigh.Top.Medial			
		X1	Y1	Z1	X2	Y2	Z2	X3	Y3	Z3	X4	Y4	Z4	X5	Y5	Z5	X6	Y6	Z6	X7	Y7	Z7	X8	Y8	Z8	X9	Y9	Z9	X10	Y10	Z10	X11	Y11	Z11	X12	Y12	Z12	X13	Y13	Z13	X14	Y14	Z14	X15	Y15	Z15	X16	Y16	Z16	X17	Y17	Z17	X18	Y18	Z18	X19	Y19	Z19	X20	Y20	Z20	X21	Y21	Z21	X22	Y22	Z22	X23	Y23	Z23	X24	Y24	Z24	X25	Y25	Z25	X26	Y26	Z26	X27	Y27	Z27	X28	Y28	Z28	X29	Y29	Z29	X30	Y30	Z30	X31	Y31	Z31	X32	Y32	Z32	X33	Y33	Z33	

3376	22.5	2349.320170163283	948.4073488631766	918.2051784459665	1779.770781924203	180.4543262096504	991.0022862395642	1811.972367389219	169.1176461778182	946.8157231633107	1817.759971515073	208.7237973536816	986.0156273846236	2318.425609074915	1016.439708026708	889.27970537568	1936.108227183361	55.85350827392885	1029.67628742549	1903.321240619269	61.76580901375453	926.2943727436225	2185.230368540314	998.8347686901366	980.6961895535318	1908.966620570836	251.8327326196496	928.1744810107843	1879.160963531476	271.1097983004265	965.3390127750433	1940.385816791819	324.9756365433803	911.9430104347396	1914.192316819766	347.2853675415274	952.4902011529348	2136.310335500318	619.8011742445852	884.3078134600083	2084.345394552313	648.060380836223	927.9850797094008	2175.111755287758	720.5031855761857	865.4218501761372	2125.878227071859	747.4547258595484	908.4914923756978	2342.679310251105	975.8925016683638	1139.791199263269	-93384466364.02538	61703773570.21452	-173633433299.7624	2186.293050456288	284.3804827452006	1074.812059433708	2216.539892625561	284.8858609820018	1115.320661632813	2220.338170421817	314.1877638262036	1070.86850407609	2283.176353912994	1039.054842579034	1169.829832974247	2357.687568356271	179.4678960384032	1051.561511785626	2326.079123646683	194.8508083465751	1153.045896572113	2182.950254813608	1004.43503427087	1078.299244708931	2322.413248414179	347.2612505004381	1129.67355059908	2290.492000402095	374.0058686448872	1092.754007605698	2361.963734390478	417.5270614088267	1143.496667093314	2331.84736046453	441.7723726977145	1105.589923297875	2480.296541785586	654.67158692576	1167.405608814083	2433.716466845909	620.3484475257894	1125.463468063482	2400.411573149642	727.8507401039886	1195.63899448274	2355.760174020079	691.1719782827307	1159.542060663251	
3377	22.50666666666667	2351.490506205262	950.6054413407147	919.2164770157533	1768.844593988819	197.6293929386061	992.7875215318925	1799.339015698027	184.0770372398975	948.0536860813543	1808.619923400002	223.1632119159021	986.9306168875067	2323.275543923094	1020.512380949403	891.2142977425366	1917.071617651945	62.13633351594291	1028.900105614493	1882.898148426469	69.81987192329881	926.5928327502941	2187.955694475909	1003.81616345894	980.6917440407133	1897.630700608763	261.9282241990029	928.2381220431965	1868.769479938694	281.0160500963433	966.2339733332699	1929.92040505183	334.8453590860024	912.6153083525411	1904.546226901048	356.9188374876517	953.775807861514	2130.864208347145	626.8205166896838	885.0919046936499	2080.092672887078	656.1482759163661	929.6067479779015	2172.237565423628	726.7240553162114	866.513839706009	2124.143700040496	754.6578743357061	910.4243035193817	2343.856654547014	980.0818367957869	1138.923360394003	-93479183937.03474	61766355625.68291	-173809541396.6966	2207.678079292706	263.0388435893479	1074.159609917089	2237.637225024392	265.8516158098572	1114.771353181005	2239.506490308749	295.2598079178634	1070.22854936148	2284.297223918292	1044.289590704801	1169.396231064798	2386.109505070542	170.4912576098712	1051.241101731785	2353.292908384781	183.7294349736914	1152.658973667987	2185.080192558836	1009.793800988537	1078.202832967368	2338.726714660123	335.8085259786744	1129.289733469698	2305.408698930944	360.1483737344749	1091.895859090435	2373.428773483911	408.6023433894349	1142.820981511124	2342.130729959523	430.6001795905826	1104.433921217858	2481.002935791147	658.9538451511605	1166.734376120741	2433.422615056152	623.698436215531	1127.124695326907	2401.692559325904	732.7179289715931	1195.337070374716	2356.310399409031	695.3599640089869	1161.177834361228	
3378	22.51333333333334	2353.51145701821	952.7547920535611	920.4094492959179	1758.508109438477	215.5244793666693	995.2349168389227	1787.00835570696	199.9527238127008	949.8860214926054	1799.869195799741	238.2115450742486	988.4168822169725	2327.594096531225	1024.158224929843	893.0923405854286	1897.991410974804	69.72229045876497	1028.332845386327	1862.274048739524	79.43819945350239	927.2691908804848	2190.471452715415	1008.498994898258	980.6813448705763	1886.69253095476	272.4428632439325	928.6759719948391	1858.935033776157	291.5034616334752	967.4735732922262	1920.274929908276	344.8771335502406	913.5251980410956	1895.888986920894	366.8687847489368	955.2757516565802	2126.787799541252	633.0615618611031	885.7496459572636	2076.962761274469	663.0685671377956	930.9545123563049	2170.080181551811	732.3362173289833	867.555822557286	2122.89412610592	760.8999900168131	912.158666063702	2344.792031229882	983.6695537041155	1138.441561645094	-93573965534.87144	61828979982.08783	-173985768532.0733	2229.801561288587	242.0403495987444	1073.518544467916	2259.392555839414	247.0478580167552	1114.217148376666	2259.241927506659	276.5332005780924	1069.671517124899	2285.169022027908	1048.858222305963	1169.203741458659	2414.329024396402	162.458480126574	1050.331766803419	2380.676949631108	173.1459006855267	1151.788077233961	2187.02815321512	1014.78156339493	1078.19053805709	2355.094937548249	324.1943304281674	1128.863839806209	2320.555118846149	346.1685242610054	1091.095994767699	2384.822204634552	399.1253437680848	1142.240008313856	2352.494690144819	418.9329846678839	1103.468263433847	2481.185498420909	662.219875958293	1166.316824681113	2432.430261254255	625.9831243209499	1129.321182442059	2402.771112803931	736.8743823084801	1195.071447488205	2356.460326865597	698.866097033854	1163.093492853727	
3379	22.52	2355.368951777524	954.8963021438293	921.7327902327066	1748.658954343946	234.045205761379	998.2900659046368	1774.937868917182	216.6666041250427	952.2889814352075	1791.384517289851	253.821599725909	990.4425313309291	2331.299941011636	1027.383604367579	894.8460105130442	1878.886919291857	78.6428409809951	1028.064241584337	1841.545441903857	90.62892973352416	928.3591367451297	2192.746175011565	1012.849531123247	980.6769958265448	1876.086706225537	283.4209578174878	929.5081905474498	1849.590604963571	302.6258860774693	969.0618187725037	1911.376874960693	355.0862520251754	914.6689266705026	1888.167562723421	377.1575559056879	956.9865342901254	2124.10483633712	638.3975161228258	886.2922465321698	2074.948898414306	668.7404774248142	932.0173786872199	2168.681515430233	737.2230875106749	868.519040742927	2122.137809405632	766.1110456874857	913.6321006960333	2345.486825060886	986.679056919212	1138.342211250682	-93668811179.16725	61891646653.72059	-174162114746.1103	2252.490345453495	221.5306927264812	1072.855384686805	2281.660464129609	228.6024381980838	1113.624297044892	2279.382321466151	258.1297785759048	1069.177869804188	2285.797963976077	1052.71519633034	1169.279480296051	2442.107936289247	155.4429290031696	1048.815261917364	2408.058221885356	163.2003593519376	1150.412275284659	2188.763050946427	1019.348552684318	1078.268331424221	2371.412628724712	312.5092290302051	1128.390168046001	2335.803879298078	332.166007593248	1090.349144460077	2396.075114178509	389.1798668525471	1141.774935856929	2362.840247542483	406.8640415707804	1102.724589579401	2480.781953163688	664.3984128324316	1166.1794242614	2430.726318467502	627.2587416939198	1131.90879539477	2403.587565066067	740.2357682019823	1194.888299254797	2356.186367867237	701.7008052618454	1165.191501094673	
